<mxfile host="app.diagrams.net" modified="2023-12-25T18:47:45.262Z" agent="Mozilla/5.0 (Windows NT 10.0; Win64; x64) AppleWebKit/537.36 (KHTML, like Gecko) Chrome/120.0.0.0 Safari/537.36" etag="Coxu-gm9cfuOM2j5OwnK" version="22.1.11" type="device">
  <diagram name="Page-1" id="FcJH-Z4t9lqNdIpB60NR">
    <mxGraphModel dx="1833" dy="2002" grid="1" gridSize="10" guides="1" tooltips="1" connect="1" arrows="1" fold="1" page="1" pageScale="1" pageWidth="850" pageHeight="1100" math="0" shadow="0">
      <root>
        <mxCell id="0" />
        <mxCell id="1" parent="0" />
        <mxCell id="6GBN4VbAhHISMndUUGDT-52" value="a" style="rounded=0;whiteSpace=wrap;html=1;fillColor=none;" parent="1" vertex="1">
          <mxGeometry x="20" y="-20" width="1570" height="1370" as="geometry" />
        </mxCell>
        <mxCell id="oQMm_L7M4YW7Zp7jjKJe-17" value="" style="rounded=1;whiteSpace=wrap;html=1;fillColor=none;" vertex="1" parent="1">
          <mxGeometry x="260" y="530" width="1100" height="410" as="geometry" />
        </mxCell>
        <mxCell id="oQMm_L7M4YW7Zp7jjKJe-33" value="Prozor za odgovor&lt;br&gt;korisnika" style="rounded=0;whiteSpace=wrap;html=1;" vertex="1" parent="1">
          <mxGeometry x="480" y="20" width="120" height="60" as="geometry" />
        </mxCell>
        <mxCell id="oQMm_L7M4YW7Zp7jjKJe-34" value="" style="rounded=0;whiteSpace=wrap;html=1;" vertex="1" parent="1">
          <mxGeometry x="530" y="590" width="20" height="240" as="geometry" />
        </mxCell>
        <mxCell id="oQMm_L7M4YW7Zp7jjKJe-35" value="" style="endArrow=none;dashed=1;html=1;rounded=0;entryX=0.5;entryY=1;entryDx=0;entryDy=0;exitX=0.5;exitY=0;exitDx=0;exitDy=0;" edge="1" parent="1" source="oQMm_L7M4YW7Zp7jjKJe-34" target="oQMm_L7M4YW7Zp7jjKJe-33">
          <mxGeometry width="50" height="50" relative="1" as="geometry">
            <mxPoint x="440" y="250" as="sourcePoint" />
            <mxPoint x="490" y="200" as="targetPoint" />
          </mxGeometry>
        </mxCell>
        <mxCell id="6GBN4VbAhHISMndUUGDT-33" value="" style="rounded=0;whiteSpace=wrap;html=1;" parent="1" vertex="1">
          <mxGeometry x="1110" y="170" width="20" height="1070" as="geometry" />
        </mxCell>
        <mxCell id="3XUADEzdGJmMBm6TumV_-1" value="Korisnik" style="shape=umlActor;verticalLabelPosition=bottom;verticalAlign=top;html=1;outlineConnect=0;" parent="1" vertex="1">
          <mxGeometry x="85" y="20" width="30" height="60" as="geometry" />
        </mxCell>
        <mxCell id="3XUADEzdGJmMBm6TumV_-2" value="" style="rounded=0;whiteSpace=wrap;html=1;" parent="1" vertex="1">
          <mxGeometry x="90" y="120" width="20" height="1150" as="geometry" />
        </mxCell>
        <mxCell id="3XUADEzdGJmMBm6TumV_-9" value="" style="rounded=0;whiteSpace=wrap;html=1;" parent="1" vertex="1">
          <mxGeometry x="800" y="120" width="20" height="1120" as="geometry" />
        </mxCell>
        <mxCell id="3XUADEzdGJmMBm6TumV_-10" value="" style="endArrow=classic;html=1;rounded=0;entryX=0;entryY=0;entryDx=0;entryDy=0;exitX=1;exitY=0;exitDx=0;exitDy=0;" parent="1" source="3XUADEzdGJmMBm6TumV_-2" target="3XUADEzdGJmMBm6TumV_-9" edge="1">
          <mxGeometry width="50" height="50" relative="1" as="geometry">
            <mxPoint x="120" y="140" as="sourcePoint" />
            <mxPoint x="450" y="390" as="targetPoint" />
          </mxGeometry>
        </mxCell>
        <mxCell id="3XUADEzdGJmMBm6TumV_-16" value="1. Korisnik pokreće aplikaciju" style="edgeLabel;html=1;align=center;verticalAlign=middle;resizable=0;points=[];" parent="3XUADEzdGJmMBm6TumV_-10" vertex="1" connectable="0">
          <mxGeometry x="0.0104" y="6" relative="1" as="geometry">
            <mxPoint x="36" y="-4" as="offset" />
          </mxGeometry>
        </mxCell>
        <mxCell id="3XUADEzdGJmMBm6TumV_-11" value="Aplikacija" style="rounded=0;whiteSpace=wrap;html=1;" parent="1" vertex="1">
          <mxGeometry x="750" y="20" width="120" height="60" as="geometry" />
        </mxCell>
        <mxCell id="3XUADEzdGJmMBm6TumV_-14" value="" style="endArrow=none;html=1;rounded=0;entryX=0.5;entryY=1;entryDx=0;entryDy=0;dashed=1;" parent="1" source="3XUADEzdGJmMBm6TumV_-9" target="3XUADEzdGJmMBm6TumV_-11" edge="1">
          <mxGeometry width="50" height="50" relative="1" as="geometry">
            <mxPoint x="650" y="180" as="sourcePoint" />
            <mxPoint x="791" y="92" as="targetPoint" />
          </mxGeometry>
        </mxCell>
        <mxCell id="3XUADEzdGJmMBm6TumV_-20" value="Glavni prozor&lt;br&gt;korisnika" style="rounded=0;whiteSpace=wrap;html=1;" parent="1" vertex="1">
          <mxGeometry x="620" y="20" width="120" height="60" as="geometry" />
        </mxCell>
        <mxCell id="oQMm_L7M4YW7Zp7jjKJe-32" value="" style="edgeStyle=orthogonalEdgeStyle;rounded=0;orthogonalLoop=1;jettySize=auto;html=1;" edge="1" parent="1" source="3XUADEzdGJmMBm6TumV_-21" target="3XUADEzdGJmMBm6TumV_-20">
          <mxGeometry relative="1" as="geometry" />
        </mxCell>
        <mxCell id="3XUADEzdGJmMBm6TumV_-21" value="" style="rounded=0;whiteSpace=wrap;html=1;" parent="1" vertex="1">
          <mxGeometry x="670" y="170" width="20" height="1070" as="geometry" />
        </mxCell>
        <mxCell id="3XUADEzdGJmMBm6TumV_-27" value="" style="endArrow=none;dashed=1;html=1;rounded=0;labelBackgroundColor=default;strokeColor=default;align=center;verticalAlign=middle;fontFamily=Helvetica;fontSize=11;fontColor=default;shape=connector;entryX=0.5;entryY=1;entryDx=0;entryDy=0;exitX=0.5;exitY=0;exitDx=0;exitDy=0;" parent="1" source="3XUADEzdGJmMBm6TumV_-21" target="3XUADEzdGJmMBm6TumV_-20" edge="1">
          <mxGeometry width="50" height="50" relative="1" as="geometry">
            <mxPoint x="520" y="410" as="sourcePoint" />
            <mxPoint x="570" y="360" as="targetPoint" />
          </mxGeometry>
        </mxCell>
        <mxCell id="3XUADEzdGJmMBm6TumV_-32" value="Prozor za kreiranje&lt;br&gt;događaja" style="rounded=0;whiteSpace=wrap;html=1;fontFamily=Helvetica;fontSize=11;fontColor=default;" parent="1" vertex="1">
          <mxGeometry x="320" y="20" width="120" height="60" as="geometry" />
        </mxCell>
        <mxCell id="3XUADEzdGJmMBm6TumV_-33" value="" style="rounded=0;whiteSpace=wrap;html=1;" parent="1" vertex="1">
          <mxGeometry x="370" y="240" width="20" height="60" as="geometry" />
        </mxCell>
        <mxCell id="3XUADEzdGJmMBm6TumV_-34" value="" style="endArrow=none;dashed=1;html=1;rounded=0;labelBackgroundColor=default;strokeColor=default;align=center;verticalAlign=middle;fontFamily=Helvetica;fontSize=11;fontColor=default;shape=connector;entryX=0.5;entryY=1;entryDx=0;entryDy=0;exitX=0.5;exitY=0;exitDx=0;exitDy=0;" parent="1" source="3XUADEzdGJmMBm6TumV_-33" target="3XUADEzdGJmMBm6TumV_-32" edge="1">
          <mxGeometry width="50" height="50" relative="1" as="geometry">
            <mxPoint x="450" y="410" as="sourcePoint" />
            <mxPoint x="500" y="360" as="targetPoint" />
          </mxGeometry>
        </mxCell>
        <mxCell id="6GBN4VbAhHISMndUUGDT-1" value="" style="endArrow=classic;html=1;rounded=0;entryX=1;entryY=0;entryDx=0;entryDy=0;dashed=1;" parent="1" target="3XUADEzdGJmMBm6TumV_-21" edge="1">
          <mxGeometry width="50" height="50" relative="1" as="geometry">
            <mxPoint x="800" y="170" as="sourcePoint" />
            <mxPoint x="570" y="160" as="targetPoint" />
            <Array as="points" />
          </mxGeometry>
        </mxCell>
        <mxCell id="6GBN4VbAhHISMndUUGDT-2" value="3. Prikaz sadržaja glavnog prozora" style="edgeLabel;html=1;align=center;verticalAlign=middle;resizable=0;points=[];" parent="6GBN4VbAhHISMndUUGDT-1" vertex="1" connectable="0">
          <mxGeometry x="-0.0638" y="-1" relative="1" as="geometry">
            <mxPoint x="4" y="-9" as="offset" />
          </mxGeometry>
        </mxCell>
        <mxCell id="6GBN4VbAhHISMndUUGDT-5" value="" style="endArrow=classic;html=1;rounded=0;entryX=1;entryY=0;entryDx=0;entryDy=0;dashed=1;" parent="1" edge="1">
          <mxGeometry width="50" height="50" relative="1" as="geometry">
            <mxPoint x="672" y="240" as="sourcePoint" />
            <mxPoint x="390" y="240" as="targetPoint" />
          </mxGeometry>
        </mxCell>
        <mxCell id="6GBN4VbAhHISMndUUGDT-6" value="&lt;font style=&quot;font-size: 11px;&quot;&gt;6. Prikaz prozora za kreiranje&lt;br style=&quot;font-size: 11px;&quot;&gt;događaja&lt;/font&gt;" style="edgeLabel;html=1;align=center;verticalAlign=middle;resizable=0;points=[];fontSize=11;" parent="6GBN4VbAhHISMndUUGDT-5" vertex="1" connectable="0">
          <mxGeometry x="0.119" relative="1" as="geometry">
            <mxPoint x="8" y="-20" as="offset" />
          </mxGeometry>
        </mxCell>
        <mxCell id="6GBN4VbAhHISMndUUGDT-7" value="" style="endArrow=classic;html=1;rounded=0;exitX=0.985;exitY=0.254;exitDx=0;exitDy=0;exitPerimeter=0;entryX=0.021;entryY=0.028;entryDx=0;entryDy=0;entryPerimeter=0;" parent="1" target="3XUADEzdGJmMBm6TumV_-21" edge="1">
          <mxGeometry width="50" height="50" relative="1" as="geometry">
            <mxPoint x="109.69999999999982" y="190.01999999999998" as="sourcePoint" />
            <mxPoint x="530" y="190" as="targetPoint" />
          </mxGeometry>
        </mxCell>
        <mxCell id="6GBN4VbAhHISMndUUGDT-8" value="5. Korisnik bira prijatelja sa kojim zeli da se sinhronizuje" style="edgeLabel;html=1;align=center;verticalAlign=middle;resizable=0;points=[];" parent="6GBN4VbAhHISMndUUGDT-7" vertex="1" connectable="0">
          <mxGeometry x="0.0473" y="-1" relative="1" as="geometry">
            <mxPoint y="-11" as="offset" />
          </mxGeometry>
        </mxCell>
        <mxCell id="6GBN4VbAhHISMndUUGDT-14" value="Prijatelj" style="shape=umlActor;verticalLabelPosition=bottom;verticalAlign=top;html=1;outlineConnect=0;" parent="1" vertex="1">
          <mxGeometry x="1375" y="20" width="30" height="60" as="geometry" />
        </mxCell>
        <mxCell id="6GBN4VbAhHISMndUUGDT-17" value="" style="rounded=0;whiteSpace=wrap;html=1;" parent="1" vertex="1">
          <mxGeometry x="1380" y="120" width="20" height="1120" as="geometry" />
        </mxCell>
        <mxCell id="6GBN4VbAhHISMndUUGDT-19" value="" style="endArrow=classic;html=1;rounded=0;exitX=1;exitY=1;exitDx=0;exitDy=0;dashed=1;" parent="1" edge="1">
          <mxGeometry width="50" height="50" relative="1" as="geometry">
            <mxPoint x="820" y="310" as="sourcePoint" />
            <mxPoint x="1110" y="310" as="targetPoint" />
            <Array as="points" />
          </mxGeometry>
        </mxCell>
        <mxCell id="6GBN4VbAhHISMndUUGDT-24" value="9. Podaci za sinhronizaciju se prosledjuju prijatelju" style="edgeLabel;html=1;align=center;verticalAlign=middle;resizable=0;points=[];" parent="6GBN4VbAhHISMndUUGDT-19" vertex="1" connectable="0">
          <mxGeometry x="0.067" y="1" relative="1" as="geometry">
            <mxPoint y="-9" as="offset" />
          </mxGeometry>
        </mxCell>
        <mxCell id="6GBN4VbAhHISMndUUGDT-20" value="Prozor za odgovor&lt;br&gt;prijatelja" style="rounded=0;whiteSpace=wrap;html=1;" parent="1" vertex="1">
          <mxGeometry x="930" y="20" width="120" height="60" as="geometry" />
        </mxCell>
        <mxCell id="6GBN4VbAhHISMndUUGDT-22" value="" style="rounded=0;whiteSpace=wrap;html=1;" parent="1" vertex="1">
          <mxGeometry x="980" y="360" width="20" height="150" as="geometry" />
        </mxCell>
        <mxCell id="6GBN4VbAhHISMndUUGDT-23" value="" style="endArrow=none;dashed=1;html=1;rounded=0;entryX=0.5;entryY=1;entryDx=0;entryDy=0;exitX=0.5;exitY=0;exitDx=0;exitDy=0;" parent="1" source="6GBN4VbAhHISMndUUGDT-22" target="6GBN4VbAhHISMndUUGDT-20" edge="1">
          <mxGeometry width="50" height="50" relative="1" as="geometry">
            <mxPoint x="890" y="250" as="sourcePoint" />
            <mxPoint x="940" y="200" as="targetPoint" />
          </mxGeometry>
        </mxCell>
        <mxCell id="6GBN4VbAhHISMndUUGDT-25" value="alt" style="shape=umlFrame;whiteSpace=wrap;html=1;pointerEvents=0;strokeWidth=2;" parent="1" vertex="1">
          <mxGeometry x="230" y="430" width="1210" height="840" as="geometry" />
        </mxCell>
        <mxCell id="6GBN4VbAhHISMndUUGDT-26" value="" style="endArrow=classic;html=1;rounded=0;" parent="1" edge="1">
          <mxGeometry width="50" height="50" relative="1" as="geometry">
            <mxPoint x="1380" y="480" as="sourcePoint" />
            <mxPoint x="1000" y="480" as="targetPoint" />
            <Array as="points">
              <mxPoint x="1210" y="480" />
            </Array>
          </mxGeometry>
        </mxCell>
        <mxCell id="6GBN4VbAhHISMndUUGDT-28" value="11. Prijatelj pritiska dugme &#39;yes&#39;" style="edgeLabel;html=1;align=center;verticalAlign=middle;resizable=0;points=[];" parent="6GBN4VbAhHISMndUUGDT-26" vertex="1" connectable="0">
          <mxGeometry x="-0.2853" relative="1" as="geometry">
            <mxPoint x="46" y="-10" as="offset" />
          </mxGeometry>
        </mxCell>
        <mxCell id="6GBN4VbAhHISMndUUGDT-27" value="[ako prijatelju&lt;br&gt;odgovara sinhronizacija]" style="text;html=1;align=center;verticalAlign=middle;resizable=0;points=[];autosize=1;strokeColor=none;fillColor=none;" parent="1" vertex="1">
          <mxGeometry x="220" y="460" width="150" height="40" as="geometry" />
        </mxCell>
        <mxCell id="6GBN4VbAhHISMndUUGDT-30" value="" style="endArrow=none;dashed=1;html=1;rounded=0;exitX=0.001;exitY=0.5;exitDx=0;exitDy=0;exitPerimeter=0;entryX=1.004;entryY=0.498;entryDx=0;entryDy=0;entryPerimeter=0;strokeWidth=2;" parent="1" edge="1">
          <mxGeometry width="50" height="50" relative="1" as="geometry">
            <mxPoint x="231.20000000000005" y="1030" as="sourcePoint" />
            <mxPoint x="1434.8000000000002" y="1028.6399999999999" as="targetPoint" />
          </mxGeometry>
        </mxCell>
        <mxCell id="6GBN4VbAhHISMndUUGDT-31" value="Glavni prozor&lt;br&gt;prijatelja" style="rounded=0;whiteSpace=wrap;html=1;" parent="1" vertex="1">
          <mxGeometry x="1060" y="20" width="120" height="60" as="geometry" />
        </mxCell>
        <mxCell id="6GBN4VbAhHISMndUUGDT-34" value="" style="endArrow=classic;html=1;rounded=0;" parent="1" edge="1">
          <mxGeometry width="50" height="50" relative="1" as="geometry">
            <mxPoint x="800" y="741" as="sourcePoint" />
            <mxPoint x="690" y="741" as="targetPoint" />
          </mxGeometry>
        </mxCell>
        <mxCell id="6GBN4VbAhHISMndUUGDT-35" value="21. Događaj je kreiran za korisnika" style="edgeLabel;html=1;align=center;verticalAlign=middle;resizable=0;points=[];" parent="6GBN4VbAhHISMndUUGDT-34" vertex="1" connectable="0">
          <mxGeometry x="0.3043" y="-3" relative="1" as="geometry">
            <mxPoint x="20" y="-7" as="offset" />
          </mxGeometry>
        </mxCell>
        <mxCell id="6GBN4VbAhHISMndUUGDT-39" value="" style="endArrow=none;dashed=1;html=1;rounded=0;entryX=0.5;entryY=1;entryDx=0;entryDy=0;exitX=0.5;exitY=0;exitDx=0;exitDy=0;" parent="1" source="6GBN4VbAhHISMndUUGDT-33" target="6GBN4VbAhHISMndUUGDT-31" edge="1">
          <mxGeometry width="50" height="50" relative="1" as="geometry">
            <mxPoint x="1120" y="270" as="sourcePoint" />
            <mxPoint x="1170" y="220" as="targetPoint" />
          </mxGeometry>
        </mxCell>
        <mxCell id="6GBN4VbAhHISMndUUGDT-44" value="[inače prijatelju ne&lt;br&gt;odgovara sinhronizacija]" style="text;html=1;align=center;verticalAlign=middle;resizable=0;points=[];autosize=1;strokeColor=none;fillColor=none;" parent="1" vertex="1">
          <mxGeometry x="235" y="1030" width="150" height="40" as="geometry" />
        </mxCell>
        <mxCell id="6GBN4VbAhHISMndUUGDT-45" value="" style="endArrow=classic;html=1;rounded=0;exitX=-0.013;exitY=0.572;exitDx=0;exitDy=0;exitPerimeter=0;entryX=1;entryY=0.25;entryDx=0;entryDy=0;" parent="1" edge="1">
          <mxGeometry width="50" height="50" relative="1" as="geometry">
            <mxPoint x="1380" y="1070" as="sourcePoint" />
            <mxPoint x="1000" y="1070" as="targetPoint" />
            <Array as="points">
              <mxPoint x="1210" y="1070" />
            </Array>
          </mxGeometry>
        </mxCell>
        <mxCell id="6GBN4VbAhHISMndUUGDT-46" value="33. Prijatelj pritiska dugme &#39;no&#39;" style="edgeLabel;html=1;align=center;verticalAlign=middle;resizable=0;points=[];" parent="6GBN4VbAhHISMndUUGDT-45" vertex="1" connectable="0">
          <mxGeometry x="-0.2853" relative="1" as="geometry">
            <mxPoint x="-24" y="-10" as="offset" />
          </mxGeometry>
        </mxCell>
        <mxCell id="oQMm_L7M4YW7Zp7jjKJe-1" value="[dok postoje slobodni zajednički termini ili dok se ne usaglase]" style="text;html=1;strokeColor=none;fillColor=none;align=center;verticalAlign=middle;whiteSpace=wrap;rounded=0;fontStyle=1" vertex="1" parent="1">
          <mxGeometry x="340" y="505" width="240" height="30" as="geometry" />
        </mxCell>
        <mxCell id="oQMm_L7M4YW7Zp7jjKJe-3" value="" style="endArrow=classic;html=1;rounded=0;exitX=0.985;exitY=0.254;exitDx=0;exitDy=0;exitPerimeter=0;" edge="1" parent="1">
          <mxGeometry width="50" height="50" relative="1" as="geometry">
            <mxPoint x="109.69999999999982" y="280.02" as="sourcePoint" />
            <mxPoint x="370" y="280" as="targetPoint" />
          </mxGeometry>
        </mxCell>
        <mxCell id="oQMm_L7M4YW7Zp7jjKJe-4" value="7. Korisnik unosi ime dogadja i njegovo trajanje&amp;nbsp;" style="edgeLabel;html=1;align=center;verticalAlign=middle;resizable=0;points=[];" vertex="1" connectable="0" parent="oQMm_L7M4YW7Zp7jjKJe-3">
          <mxGeometry x="0.0473" y="-1" relative="1" as="geometry">
            <mxPoint y="-11" as="offset" />
          </mxGeometry>
        </mxCell>
        <mxCell id="oQMm_L7M4YW7Zp7jjKJe-7" value="" style="endArrow=classic;html=1;rounded=0;exitX=0.985;exitY=0.254;exitDx=0;exitDy=0;exitPerimeter=0;" edge="1" parent="1">
          <mxGeometry width="50" height="50" relative="1" as="geometry">
            <mxPoint x="390" y="300.02" as="sourcePoint" />
            <mxPoint x="800" y="300" as="targetPoint" />
          </mxGeometry>
        </mxCell>
        <mxCell id="oQMm_L7M4YW7Zp7jjKJe-8" value="8. Podaci za sinhronizaciju se prosledjuju aplikaciji&amp;nbsp;" style="edgeLabel;html=1;align=center;verticalAlign=middle;resizable=0;points=[];" vertex="1" connectable="0" parent="oQMm_L7M4YW7Zp7jjKJe-7">
          <mxGeometry x="0.0473" y="-1" relative="1" as="geometry">
            <mxPoint y="-11" as="offset" />
          </mxGeometry>
        </mxCell>
        <mxCell id="oQMm_L7M4YW7Zp7jjKJe-9" value="" style="endArrow=classic;html=1;rounded=0;dashed=1;" edge="1" parent="1">
          <mxGeometry width="50" height="50" relative="1" as="geometry">
            <mxPoint x="1040" y="360" as="sourcePoint" />
            <mxPoint x="1000" y="360" as="targetPoint" />
            <Array as="points">
              <mxPoint x="1110" y="360" />
            </Array>
          </mxGeometry>
        </mxCell>
        <mxCell id="oQMm_L7M4YW7Zp7jjKJe-10" value="10. Prikaz prozora za odgovor prijatelja za sinhronizaciju" style="edgeLabel;html=1;align=center;verticalAlign=middle;resizable=0;points=[];" vertex="1" connectable="0" parent="oQMm_L7M4YW7Zp7jjKJe-9">
          <mxGeometry x="-0.2853" relative="1" as="geometry">
            <mxPoint x="-44" y="-10" as="offset" />
          </mxGeometry>
        </mxCell>
        <mxCell id="oQMm_L7M4YW7Zp7jjKJe-19" value="loop" style="rounded=0;whiteSpace=wrap;html=1;strokeWidth=2;" vertex="1" parent="1">
          <mxGeometry x="300" y="510" width="40" height="20" as="geometry" />
        </mxCell>
        <mxCell id="oQMm_L7M4YW7Zp7jjKJe-20" value="" style="endArrow=classic;html=1;rounded=0;exitX=0.065;exitY=0.059;exitDx=0;exitDy=0;exitPerimeter=0;dashed=1;" edge="1" parent="1">
          <mxGeometry width="50" height="50" relative="1" as="geometry">
            <mxPoint x="801" y="570" as="sourcePoint" />
            <mxPoint x="690" y="570" as="targetPoint" />
            <Array as="points" />
          </mxGeometry>
        </mxCell>
        <mxCell id="oQMm_L7M4YW7Zp7jjKJe-21" value="13. Šalje termin korisniku" style="edgeLabel;html=1;align=center;verticalAlign=middle;resizable=0;points=[];" vertex="1" connectable="0" parent="oQMm_L7M4YW7Zp7jjKJe-20">
          <mxGeometry x="-0.0638" y="-1" relative="1" as="geometry">
            <mxPoint x="4" y="-9" as="offset" />
          </mxGeometry>
        </mxCell>
        <mxCell id="oQMm_L7M4YW7Zp7jjKJe-41" value="" style="rounded=0;whiteSpace=wrap;html=1;" vertex="1" parent="1">
          <mxGeometry x="980" y="590" width="20" height="250" as="geometry" />
        </mxCell>
        <mxCell id="oQMm_L7M4YW7Zp7jjKJe-22" value="" style="endArrow=classic;html=1;rounded=0;dashed=1;" edge="1" parent="1">
          <mxGeometry width="50" height="50" relative="1" as="geometry">
            <mxPoint x="820" y="570" as="sourcePoint" />
            <mxPoint x="1110" y="570" as="targetPoint" />
            <Array as="points" />
          </mxGeometry>
        </mxCell>
        <mxCell id="oQMm_L7M4YW7Zp7jjKJe-23" value="14. Šalje termin prijatelju" style="edgeLabel;html=1;align=center;verticalAlign=middle;resizable=0;points=[];" vertex="1" connectable="0" parent="oQMm_L7M4YW7Zp7jjKJe-22">
          <mxGeometry x="0.067" y="1" relative="1" as="geometry">
            <mxPoint x="-10" y="-9" as="offset" />
          </mxGeometry>
        </mxCell>
        <mxCell id="oQMm_L7M4YW7Zp7jjKJe-26" value="" style="endArrow=classic;html=1;rounded=0;dashed=1;" edge="1" parent="1">
          <mxGeometry width="50" height="50" relative="1" as="geometry">
            <mxPoint x="1040" y="590" as="sourcePoint" />
            <mxPoint x="1000" y="590" as="targetPoint" />
            <Array as="points">
              <mxPoint x="1110" y="590" />
            </Array>
          </mxGeometry>
        </mxCell>
        <mxCell id="oQMm_L7M4YW7Zp7jjKJe-36" value="15. Prikazuje prozor za&lt;br style=&quot;font-size: 9px;&quot;&gt;&amp;nbsp;odgovor za termin" style="edgeLabel;html=1;align=center;verticalAlign=middle;resizable=0;points=[];fontSize=9;" vertex="1" connectable="0" parent="oQMm_L7M4YW7Zp7jjKJe-26">
          <mxGeometry x="0.7529" y="-5" relative="1" as="geometry">
            <mxPoint x="30" y="21" as="offset" />
          </mxGeometry>
        </mxCell>
        <mxCell id="oQMm_L7M4YW7Zp7jjKJe-28" value="" style="endArrow=classic;html=1;rounded=0;entryX=0.75;entryY=0;entryDx=0;entryDy=0;" edge="1" parent="1" target="3XUADEzdGJmMBm6TumV_-9">
          <mxGeometry width="50" height="50" relative="1" as="geometry">
            <mxPoint x="1380" y="120" as="sourcePoint" />
            <mxPoint x="1130" y="120" as="targetPoint" />
            <Array as="points">
              <mxPoint x="1210" y="120" />
            </Array>
          </mxGeometry>
        </mxCell>
        <mxCell id="oQMm_L7M4YW7Zp7jjKJe-29" value="2. Prijatelj pokreće aplikaciju&#39;" style="edgeLabel;html=1;align=center;verticalAlign=middle;resizable=0;points=[];" vertex="1" connectable="0" parent="oQMm_L7M4YW7Zp7jjKJe-28">
          <mxGeometry x="-0.2853" relative="1" as="geometry">
            <mxPoint x="-24" y="-10" as="offset" />
          </mxGeometry>
        </mxCell>
        <mxCell id="oQMm_L7M4YW7Zp7jjKJe-30" value="" style="endArrow=classic;html=1;rounded=0;exitX=1;exitY=1;exitDx=0;exitDy=0;dashed=1;" edge="1" parent="1">
          <mxGeometry width="50" height="50" relative="1" as="geometry">
            <mxPoint x="820" y="170" as="sourcePoint" />
            <mxPoint x="1110" y="170" as="targetPoint" />
            <Array as="points" />
          </mxGeometry>
        </mxCell>
        <mxCell id="oQMm_L7M4YW7Zp7jjKJe-31" value="4. Prikaz sadržaja glavnog prozora" style="edgeLabel;html=1;align=center;verticalAlign=middle;resizable=0;points=[];" vertex="1" connectable="0" parent="oQMm_L7M4YW7Zp7jjKJe-30">
          <mxGeometry x="0.067" y="1" relative="1" as="geometry">
            <mxPoint y="-9" as="offset" />
          </mxGeometry>
        </mxCell>
        <mxCell id="oQMm_L7M4YW7Zp7jjKJe-37" value="" style="endArrow=classic;html=1;rounded=0;dashed=1;" edge="1" parent="1">
          <mxGeometry width="50" height="50" relative="1" as="geometry">
            <mxPoint x="600" y="590" as="sourcePoint" />
            <mxPoint x="550" y="590" as="targetPoint" />
            <Array as="points">
              <mxPoint x="670" y="590" />
            </Array>
          </mxGeometry>
        </mxCell>
        <mxCell id="oQMm_L7M4YW7Zp7jjKJe-38" value="16. Prikazuje prozor za&lt;br&gt;&amp;nbsp;odgovor za termin" style="edgeLabel;html=1;align=center;verticalAlign=middle;resizable=0;points=[];" vertex="1" connectable="0" parent="oQMm_L7M4YW7Zp7jjKJe-37">
          <mxGeometry x="0.7529" y="-5" relative="1" as="geometry">
            <mxPoint x="30" y="-20" as="offset" />
          </mxGeometry>
        </mxCell>
        <mxCell id="oQMm_L7M4YW7Zp7jjKJe-39" value="" style="endArrow=classic;html=1;rounded=0;dashed=1;" edge="1" parent="1">
          <mxGeometry width="50" height="50" relative="1" as="geometry">
            <mxPoint x="980" y="510" as="sourcePoint" />
            <mxPoint x="820" y="510" as="targetPoint" />
            <Array as="points">
              <mxPoint x="840" y="510" />
            </Array>
          </mxGeometry>
        </mxCell>
        <mxCell id="oQMm_L7M4YW7Zp7jjKJe-40" value="12. Dobija odgovor" style="edgeLabel;html=1;align=center;verticalAlign=middle;resizable=0;points=[];" vertex="1" connectable="0" parent="oQMm_L7M4YW7Zp7jjKJe-39">
          <mxGeometry x="-0.2853" relative="1" as="geometry">
            <mxPoint x="-14" y="-10" as="offset" />
          </mxGeometry>
        </mxCell>
        <mxCell id="oQMm_L7M4YW7Zp7jjKJe-43" value="alt" style="shape=umlFrame;whiteSpace=wrap;html=1;pointerEvents=0;strokeWidth=2;" vertex="1" parent="1">
          <mxGeometry x="410" y="620" width="800" height="290" as="geometry" />
        </mxCell>
        <mxCell id="oQMm_L7M4YW7Zp7jjKJe-45" value="" style="endArrow=none;dashed=1;html=1;rounded=0;entryX=0.998;entryY=0.525;entryDx=0;entryDy=0;entryPerimeter=0;fontStyle=1;strokeWidth=2;exitX=-0.004;exitY=0.527;exitDx=0;exitDy=0;exitPerimeter=0;" edge="1" parent="1" source="oQMm_L7M4YW7Zp7jjKJe-43" target="oQMm_L7M4YW7Zp7jjKJe-43">
          <mxGeometry width="50" height="50" relative="1" as="geometry">
            <mxPoint x="450" y="720" as="sourcePoint" />
            <mxPoint x="830" y="820" as="targetPoint" />
          </mxGeometry>
        </mxCell>
        <mxCell id="oQMm_L7M4YW7Zp7jjKJe-48" value="[ako korisniku i prijatelju odgovara termin]" style="text;html=1;strokeColor=none;fillColor=none;align=center;verticalAlign=middle;whiteSpace=wrap;rounded=0;fontSize=9;" vertex="1" parent="1">
          <mxGeometry x="400" y="650" width="120" height="30" as="geometry" />
        </mxCell>
        <mxCell id="oQMm_L7M4YW7Zp7jjKJe-49" value="[ako korisniku ili prijatelju ne odgovara termin]" style="text;html=1;strokeColor=none;fillColor=none;align=center;verticalAlign=middle;whiteSpace=wrap;rounded=0;fontSize=9;" vertex="1" parent="1">
          <mxGeometry x="410" y="780" width="120" height="30" as="geometry" />
        </mxCell>
        <mxCell id="oQMm_L7M4YW7Zp7jjKJe-50" value="" style="endArrow=classic;html=1;rounded=0;entryX=0.1;entryY=0.442;entryDx=0;entryDy=0;entryPerimeter=0;" edge="1" parent="1" target="oQMm_L7M4YW7Zp7jjKJe-34">
          <mxGeometry width="50" height="50" relative="1" as="geometry">
            <mxPoint x="110" y="696" as="sourcePoint" />
            <mxPoint x="527.0799999999999" y="696.0799999999999" as="targetPoint" />
          </mxGeometry>
        </mxCell>
        <mxCell id="oQMm_L7M4YW7Zp7jjKJe-51" value="17. Korisnik pritiska dugme &#39;yes&#39;" style="edgeLabel;html=1;align=center;verticalAlign=middle;resizable=0;points=[];" vertex="1" connectable="0" parent="oQMm_L7M4YW7Zp7jjKJe-50">
          <mxGeometry x="0.0473" y="-1" relative="1" as="geometry">
            <mxPoint y="-11" as="offset" />
          </mxGeometry>
        </mxCell>
        <mxCell id="oQMm_L7M4YW7Zp7jjKJe-54" value="" style="endArrow=classic;html=1;rounded=0;" edge="1" parent="1">
          <mxGeometry width="50" height="50" relative="1" as="geometry">
            <mxPoint x="1380" y="670" as="sourcePoint" />
            <mxPoint x="1000" y="670" as="targetPoint" />
            <Array as="points">
              <mxPoint x="1210" y="670" />
            </Array>
          </mxGeometry>
        </mxCell>
        <mxCell id="oQMm_L7M4YW7Zp7jjKJe-55" value="18. Prijatelj pritiska dugme &#39;yes&#39;" style="edgeLabel;html=1;align=center;verticalAlign=middle;resizable=0;points=[];" vertex="1" connectable="0" parent="oQMm_L7M4YW7Zp7jjKJe-54">
          <mxGeometry x="-0.2853" relative="1" as="geometry">
            <mxPoint x="-144" y="-10" as="offset" />
          </mxGeometry>
        </mxCell>
        <mxCell id="oQMm_L7M4YW7Zp7jjKJe-59" value="" style="endArrow=classic;html=1;rounded=0;exitX=0.9;exitY=0.554;exitDx=0;exitDy=0;exitPerimeter=0;dashed=1;" edge="1" parent="1">
          <mxGeometry width="50" height="50" relative="1" as="geometry">
            <mxPoint x="548" y="702.96" as="sourcePoint" />
            <mxPoint x="798" y="703" as="targetPoint" />
          </mxGeometry>
        </mxCell>
        <mxCell id="oQMm_L7M4YW7Zp7jjKJe-60" value="19. Prosleđuje se odgovor" style="edgeLabel;html=1;align=center;verticalAlign=middle;resizable=0;points=[];" vertex="1" connectable="0" parent="oQMm_L7M4YW7Zp7jjKJe-59">
          <mxGeometry x="0.0473" y="-1" relative="1" as="geometry">
            <mxPoint y="-11" as="offset" />
          </mxGeometry>
        </mxCell>
        <mxCell id="oQMm_L7M4YW7Zp7jjKJe-61" value="" style="endArrow=classic;html=1;rounded=0;dashed=1;" edge="1" parent="1">
          <mxGeometry width="50" height="50" relative="1" as="geometry">
            <mxPoint x="978" y="704" as="sourcePoint" />
            <mxPoint x="820" y="704" as="targetPoint" />
            <Array as="points" />
          </mxGeometry>
        </mxCell>
        <mxCell id="oQMm_L7M4YW7Zp7jjKJe-62" value="20. Prosleđuje se odgovor" style="edgeLabel;html=1;align=center;verticalAlign=middle;resizable=0;points=[];fontSize=11;" vertex="1" connectable="0" parent="oQMm_L7M4YW7Zp7jjKJe-61">
          <mxGeometry x="0.7529" y="-5" relative="1" as="geometry">
            <mxPoint x="60" y="-4" as="offset" />
          </mxGeometry>
        </mxCell>
        <mxCell id="6GBN4VbAhHISMndUUGDT-37" value="" style="endArrow=classic;html=1;rounded=0;exitX=1;exitY=0.5;exitDx=0;exitDy=0;" parent="1" edge="1">
          <mxGeometry width="50" height="50" relative="1" as="geometry">
            <mxPoint x="819.38" y="740.26" as="sourcePoint" />
            <mxPoint x="1110" y="740" as="targetPoint" />
          </mxGeometry>
        </mxCell>
        <mxCell id="6GBN4VbAhHISMndUUGDT-40" value="22. Događaj je kreiran za prijatelja" style="edgeLabel;html=1;align=center;verticalAlign=middle;resizable=0;points=[];" parent="6GBN4VbAhHISMndUUGDT-37" vertex="1" connectable="0">
          <mxGeometry x="-0.5157" y="2" relative="1" as="geometry">
            <mxPoint x="82" y="-8" as="offset" />
          </mxGeometry>
        </mxCell>
        <mxCell id="oQMm_L7M4YW7Zp7jjKJe-63" value="" style="endArrow=classic;html=1;rounded=0;entryX=0.119;entryY=0.987;entryDx=0;entryDy=0;entryPerimeter=0;" edge="1" parent="1" target="oQMm_L7M4YW7Zp7jjKJe-34">
          <mxGeometry width="50" height="50" relative="1" as="geometry">
            <mxPoint x="110" y="826" as="sourcePoint" />
            <mxPoint x="527.0799999999999" y="826.0799999999999" as="targetPoint" />
          </mxGeometry>
        </mxCell>
        <mxCell id="oQMm_L7M4YW7Zp7jjKJe-64" value="23. Korisnik pritiska dugme &#39;yes&#39;" style="edgeLabel;html=1;align=center;verticalAlign=middle;resizable=0;points=[];" vertex="1" connectable="0" parent="oQMm_L7M4YW7Zp7jjKJe-63">
          <mxGeometry x="0.0473" y="-1" relative="1" as="geometry">
            <mxPoint y="-11" as="offset" />
          </mxGeometry>
        </mxCell>
        <mxCell id="oQMm_L7M4YW7Zp7jjKJe-65" value="" style="endArrow=classic;html=1;rounded=0;" edge="1" parent="1">
          <mxGeometry width="50" height="50" relative="1" as="geometry">
            <mxPoint x="1380" y="810" as="sourcePoint" />
            <mxPoint x="1000" y="810" as="targetPoint" />
            <Array as="points">
              <mxPoint x="1210" y="810" />
            </Array>
          </mxGeometry>
        </mxCell>
        <mxCell id="oQMm_L7M4YW7Zp7jjKJe-66" value="24 Prijatelj pritiska dugme &#39;no&#39;" style="edgeLabel;html=1;align=center;verticalAlign=middle;resizable=0;points=[];" vertex="1" connectable="0" parent="oQMm_L7M4YW7Zp7jjKJe-65">
          <mxGeometry x="-0.2853" relative="1" as="geometry">
            <mxPoint x="-144" y="-10" as="offset" />
          </mxGeometry>
        </mxCell>
        <mxCell id="oQMm_L7M4YW7Zp7jjKJe-67" value="" style="endArrow=classic;html=1;rounded=0;exitX=0.9;exitY=0.554;exitDx=0;exitDy=0;exitPerimeter=0;dashed=1;" edge="1" parent="1">
          <mxGeometry width="50" height="50" relative="1" as="geometry">
            <mxPoint x="548" y="822.96" as="sourcePoint" />
            <mxPoint x="798" y="823" as="targetPoint" />
          </mxGeometry>
        </mxCell>
        <mxCell id="oQMm_L7M4YW7Zp7jjKJe-68" value="25. Prosleđuje se odgovor" style="edgeLabel;html=1;align=center;verticalAlign=middle;resizable=0;points=[];" vertex="1" connectable="0" parent="oQMm_L7M4YW7Zp7jjKJe-67">
          <mxGeometry x="0.0473" y="-1" relative="1" as="geometry">
            <mxPoint y="-11" as="offset" />
          </mxGeometry>
        </mxCell>
        <mxCell id="oQMm_L7M4YW7Zp7jjKJe-69" value="" style="endArrow=classic;html=1;rounded=0;dashed=1;" edge="1" parent="1">
          <mxGeometry width="50" height="50" relative="1" as="geometry">
            <mxPoint x="978" y="834" as="sourcePoint" />
            <mxPoint x="820" y="834" as="targetPoint" />
            <Array as="points" />
          </mxGeometry>
        </mxCell>
        <mxCell id="oQMm_L7M4YW7Zp7jjKJe-70" value="26. Prosleđuje se odgovor" style="edgeLabel;html=1;align=center;verticalAlign=middle;resizable=0;points=[];fontSize=11;" vertex="1" connectable="0" parent="oQMm_L7M4YW7Zp7jjKJe-69">
          <mxGeometry x="0.7529" y="-5" relative="1" as="geometry">
            <mxPoint x="60" y="-4" as="offset" />
          </mxGeometry>
        </mxCell>
        <mxCell id="oQMm_L7M4YW7Zp7jjKJe-71" value="" style="endArrow=classic;html=1;rounded=0;exitX=0.065;exitY=0.059;exitDx=0;exitDy=0;exitPerimeter=0;dashed=1;" edge="1" parent="1">
          <mxGeometry width="50" height="50" relative="1" as="geometry">
            <mxPoint x="801" y="870" as="sourcePoint" />
            <mxPoint x="690" y="870" as="targetPoint" />
            <Array as="points" />
          </mxGeometry>
        </mxCell>
        <mxCell id="oQMm_L7M4YW7Zp7jjKJe-72" value="27. Šalje termin korisniku" style="edgeLabel;html=1;align=center;verticalAlign=middle;resizable=0;points=[];" vertex="1" connectable="0" parent="oQMm_L7M4YW7Zp7jjKJe-71">
          <mxGeometry x="-0.0638" y="-1" relative="1" as="geometry">
            <mxPoint x="4" y="-9" as="offset" />
          </mxGeometry>
        </mxCell>
        <mxCell id="oQMm_L7M4YW7Zp7jjKJe-73" value="" style="endArrow=classic;html=1;rounded=0;dashed=1;" edge="1" parent="1">
          <mxGeometry width="50" height="50" relative="1" as="geometry">
            <mxPoint x="820" y="870" as="sourcePoint" />
            <mxPoint x="1110" y="870" as="targetPoint" />
            <Array as="points" />
          </mxGeometry>
        </mxCell>
        <mxCell id="oQMm_L7M4YW7Zp7jjKJe-74" value="28. Šalje termin prijatelju" style="edgeLabel;html=1;align=center;verticalAlign=middle;resizable=0;points=[];" vertex="1" connectable="0" parent="oQMm_L7M4YW7Zp7jjKJe-73">
          <mxGeometry x="0.067" y="1" relative="1" as="geometry">
            <mxPoint x="-10" y="-9" as="offset" />
          </mxGeometry>
        </mxCell>
        <mxCell id="oQMm_L7M4YW7Zp7jjKJe-75" value="" style="endArrow=none;dashed=1;html=1;rounded=0;entryX=0.5;entryY=1;entryDx=0;entryDy=0;" edge="1" parent="1">
          <mxGeometry width="50" height="50" relative="1" as="geometry">
            <mxPoint x="990" y="590" as="sourcePoint" />
            <mxPoint x="990" y="510" as="targetPoint" />
          </mxGeometry>
        </mxCell>
        <mxCell id="oQMm_L7M4YW7Zp7jjKJe-76" value="" style="endArrow=none;dashed=1;html=1;rounded=0;entryX=0.5;entryY=1;entryDx=0;entryDy=0;" edge="1" parent="1" source="oQMm_L7M4YW7Zp7jjKJe-77">
          <mxGeometry width="50" height="50" relative="1" as="geometry">
            <mxPoint x="990" y="920" as="sourcePoint" />
            <mxPoint x="990" y="840" as="targetPoint" />
          </mxGeometry>
        </mxCell>
        <mxCell id="oQMm_L7M4YW7Zp7jjKJe-77" value="" style="rounded=0;whiteSpace=wrap;html=1;" vertex="1" parent="1">
          <mxGeometry x="980" y="1070" width="20" height="60" as="geometry" />
        </mxCell>
        <mxCell id="oQMm_L7M4YW7Zp7jjKJe-78" value="" style="endArrow=classic;html=1;rounded=0;exitX=0.065;exitY=0.059;exitDx=0;exitDy=0;exitPerimeter=0;dashed=1;" edge="1" parent="1">
          <mxGeometry width="50" height="50" relative="1" as="geometry">
            <mxPoint x="801" y="980" as="sourcePoint" />
            <mxPoint x="690" y="980" as="targetPoint" />
            <Array as="points" />
          </mxGeometry>
        </mxCell>
        <mxCell id="oQMm_L7M4YW7Zp7jjKJe-79" value="29. Šalje poruku da &lt;br&gt;sinhronizacija nije uspela" style="edgeLabel;html=1;align=center;verticalAlign=middle;resizable=0;points=[];" vertex="1" connectable="0" parent="oQMm_L7M4YW7Zp7jjKJe-78">
          <mxGeometry x="-0.0638" y="-1" relative="1" as="geometry">
            <mxPoint x="-6" y="-19" as="offset" />
          </mxGeometry>
        </mxCell>
        <mxCell id="oQMm_L7M4YW7Zp7jjKJe-81" value="" style="endArrow=classic;html=1;rounded=0;exitX=1;exitY=0.5;exitDx=0;exitDy=0;dashed=1;" edge="1" parent="1">
          <mxGeometry width="50" height="50" relative="1" as="geometry">
            <mxPoint x="819.38" y="980.26" as="sourcePoint" />
            <mxPoint x="1110" y="980" as="targetPoint" />
          </mxGeometry>
        </mxCell>
        <mxCell id="oQMm_L7M4YW7Zp7jjKJe-82" value="30. Šalje poruku da sinhronizacija nije uspela" style="edgeLabel;html=1;align=center;verticalAlign=middle;resizable=0;points=[];" vertex="1" connectable="0" parent="oQMm_L7M4YW7Zp7jjKJe-81">
          <mxGeometry x="-0.5157" y="2" relative="1" as="geometry">
            <mxPoint x="82" y="-8" as="offset" />
          </mxGeometry>
        </mxCell>
        <mxCell id="oQMm_L7M4YW7Zp7jjKJe-83" value="" style="endArrow=classic;html=1;rounded=0;dashed=1;" edge="1" parent="1">
          <mxGeometry width="50" height="50" relative="1" as="geometry">
            <mxPoint x="978" y="1124" as="sourcePoint" />
            <mxPoint x="820" y="1124" as="targetPoint" />
            <Array as="points" />
          </mxGeometry>
        </mxCell>
        <mxCell id="oQMm_L7M4YW7Zp7jjKJe-84" value="34. Prosleđuje se odgovor" style="edgeLabel;html=1;align=center;verticalAlign=middle;resizable=0;points=[];fontSize=11;" vertex="1" connectable="0" parent="oQMm_L7M4YW7Zp7jjKJe-83">
          <mxGeometry x="0.7529" y="-5" relative="1" as="geometry">
            <mxPoint x="60" y="-4" as="offset" />
          </mxGeometry>
        </mxCell>
        <mxCell id="oQMm_L7M4YW7Zp7jjKJe-85" value="" style="endArrow=classic;html=1;rounded=0;exitX=0.065;exitY=0.059;exitDx=0;exitDy=0;exitPerimeter=0;dashed=1;" edge="1" parent="1">
          <mxGeometry width="50" height="50" relative="1" as="geometry">
            <mxPoint x="801" y="1170" as="sourcePoint" />
            <mxPoint x="690" y="1170" as="targetPoint" />
            <Array as="points" />
          </mxGeometry>
        </mxCell>
        <mxCell id="oQMm_L7M4YW7Zp7jjKJe-86" value="35. Šalje poruku da &lt;br&gt;sinhronizacija nije uspela" style="edgeLabel;html=1;align=center;verticalAlign=middle;resizable=0;points=[];" vertex="1" connectable="0" parent="oQMm_L7M4YW7Zp7jjKJe-85">
          <mxGeometry x="-0.0638" y="-1" relative="1" as="geometry">
            <mxPoint x="-6" y="-19" as="offset" />
          </mxGeometry>
        </mxCell>
        <mxCell id="oQMm_L7M4YW7Zp7jjKJe-87" value="" style="endArrow=classic;html=1;rounded=0;dashed=1;entryX=1.064;entryY=0.882;entryDx=0;entryDy=0;entryPerimeter=0;" edge="1" parent="1">
          <mxGeometry width="50" height="50" relative="1" as="geometry">
            <mxPoint x="600" y="1020" as="sourcePoint" />
            <mxPoint x="111.27999999999975" y="1020.8200000000002" as="targetPoint" />
            <Array as="points">
              <mxPoint x="670" y="1020" />
            </Array>
          </mxGeometry>
        </mxCell>
        <mxCell id="oQMm_L7M4YW7Zp7jjKJe-88" value="31. Prikazuju se podaci" style="edgeLabel;html=1;align=center;verticalAlign=middle;resizable=0;points=[];" vertex="1" connectable="0" parent="oQMm_L7M4YW7Zp7jjKJe-87">
          <mxGeometry x="0.7529" y="-5" relative="1" as="geometry">
            <mxPoint x="190" y="-10" as="offset" />
          </mxGeometry>
        </mxCell>
        <mxCell id="oQMm_L7M4YW7Zp7jjKJe-89" value="" style="endArrow=classic;html=1;rounded=0;dashed=1;" edge="1" parent="1">
          <mxGeometry width="50" height="50" relative="1" as="geometry">
            <mxPoint x="1130" y="1010" as="sourcePoint" />
            <mxPoint x="1380" y="1010" as="targetPoint" />
            <Array as="points" />
          </mxGeometry>
        </mxCell>
        <mxCell id="oQMm_L7M4YW7Zp7jjKJe-90" value="32. Šalje termin prijatelju" style="edgeLabel;html=1;align=center;verticalAlign=middle;resizable=0;points=[];" vertex="1" connectable="0" parent="oQMm_L7M4YW7Zp7jjKJe-89">
          <mxGeometry x="0.067" y="1" relative="1" as="geometry">
            <mxPoint x="-10" y="-9" as="offset" />
          </mxGeometry>
        </mxCell>
        <mxCell id="oQMm_L7M4YW7Zp7jjKJe-91" value="" style="endArrow=classic;html=1;rounded=0;dashed=1;entryX=1.064;entryY=0.882;entryDx=0;entryDy=0;entryPerimeter=0;" edge="1" parent="1">
          <mxGeometry width="50" height="50" relative="1" as="geometry">
            <mxPoint x="600" y="1230" as="sourcePoint" />
            <mxPoint x="111.27999999999975" y="1230.8200000000002" as="targetPoint" />
            <Array as="points">
              <mxPoint x="670" y="1230" />
            </Array>
          </mxGeometry>
        </mxCell>
        <mxCell id="oQMm_L7M4YW7Zp7jjKJe-92" value="36. Prikazuju se podaci" style="edgeLabel;html=1;align=center;verticalAlign=middle;resizable=0;points=[];" vertex="1" connectable="0" parent="oQMm_L7M4YW7Zp7jjKJe-91">
          <mxGeometry x="0.7529" y="-5" relative="1" as="geometry">
            <mxPoint x="190" y="-10" as="offset" />
          </mxGeometry>
        </mxCell>
      </root>
    </mxGraphModel>
  </diagram>
</mxfile>
